{
  "accessors": [
    {
      "bufferView": 2,
      "componentType": 5126,
      "count": 1091,
      "max": [
        1.6949301958084106,
        0.22944378852844238,
        2.470568895339966
      ],
      "min": [
        -3.2293314933776855,
        -9.542375564575195,
        -2.470568895339966
      ],
      "type": "VEC3"
    },
    {
      "bufferView": 2,
      "byteOffset": 13092,
      "componentType": 5126,
      "count": 1091,
      "max": [
        0.9965828657150269,
        1.0,
        1.0
      ],
      "min": [
        -1.0,
        -1.0,
        -1.0
      ],
      "type": "VEC3"
    },
    {
      "bufferView": 1,
      "componentType": 5126,
      "count": 1091,
      "max": [
        0.0,
        1.0
      ],
      "min": [
        0.0,
        1.0
      ],
      "type": "VEC2"
    },
    {
      "bufferView": 0,
      "componentType": 5125,
      "count": 5616,
      "type": "SCALAR"
    },
    {
      "bufferView": 2,
      "byteOffset": 26184,
      "componentType": 5126,
      "count": 254,
      "max": [
        2.1162450313568115,
        0.08466348052024841,
        2.8933277130126953
      ],
      "min": [
        -3.650646448135376,
        -9.542375564575195,
        -2.8933277130126953
      ],
      "type": "VEC3"
    },
    {
      "bufferView": 2,
      "byteOffset": 29232,
      "componentType": 5126,
      "count": 254,
      "max": [
        0.9965828657150269,
        1.0,
        1.0
      ],
      "min": [
        -1.0,
        -0.2401100993156433,
        -1.0
      ],
      "type": "VEC3"
    },
    {
      "bufferView": 1,
      "byteOffset": 8728,
      "componentType": 5126,
      "count": 254,
      "max": [
        1.0000388622283936,
        0.9388774633407593
      ],
      "min": [
        -3.88026237487793e-05,
        0.024108052253723145
      ],
      "type": "VEC2"
    },
    {
      "bufferView": 0,
      "byteOffset": 22464,
      "componentType": 5125,
      "count": 1206,
      "type": "SCALAR"
    },
    {
      "bufferView": 2,
      "byteOffset": 32280,
      "componentType": 5126,
      "count": 582,
      "max": [
        0.005476713180541992,
        0.2993731200695038,
        0.5965180993080139
      ],
      "min": [
        -2.380587577819824,
        -2.885927301576885e-07,
        -0.5965180993080139
      ],
      "type": "VEC3"
    },
    {
      "bufferView": 2,
      "byteOffset": 39264,
      "componentType": 5126,
      "count": 582,
      "max": [
        1.0,
        1.0,
        1.0
      ],
      "min": [
        -1.0,
        -1.0,
        -1.0
      ],
      "type": "VEC3"
    },
    {
      "bufferView": 1,
      "byteOffset": 10760,
      "componentType": 5126,
      "count": 582,
      "max": [
        0.0,
        1.0
      ],
      "min": [
        0.0,
        1.0
      ],
      "type": "VEC2"
    },
    {
      "bufferView": 0,
      "byteOffset": 27288,
      "componentType": 5125,
      "count": 3504,
      "type": "SCALAR"
    }
  ],
  "asset": {
    "extras": {
      "author": "aakashkumar3369 (https://sketchfab.com/aakashkumar3369)",
      "license": "CC-BY-4.0 (http://creativecommons.org/licenses/by/4.0/)",
      "source": "https://sketchfab.com/3d-models/coco-cola-can-3593d1f7e87b4fd98f25acbd99e5c39f",
      "title": "Coco Cola can"
    },
    "generator": "Sketchfab-15.34.0",
    "version": "2.0"
  },
  "bufferViews": [
    {
      "buffer": 0,
      "byteLength": 41304,
      "name": "floatBufferViews",
      "target": 34963
    },
    {
      "buffer": 0,
      "byteLength": 15416,
      "byteOffset": 41304,
      "byteStride": 8,
      "name": "floatBufferViews",
      "target": 34962
    },
    {
      "buffer": 0,
      "byteLength": 46248,
      "byteOffset": 56720,
      "byteStride": 12,
      "name": "floatBufferViews",
      "target": 34962
    }
  ],
  "buffers": [
    {
      "byteLength": 102968,
      "uri": "scene.bin"
    }
  ],
  "images": [
    {
      "uri": "textures/image_baseColor.png"
    }
  ],
  "materials": [
    {
      "doubleSided": true,
      "name": "top_of_can",
      "pbrMetallicRoughness": {
        "baseColorFactor": [
          0.8,
          0.8,
          0.8,
          1.0
        ],
        "roughnessFactor": 0.3
      }
    },
    {
      "doubleSided": true,
      "name": "image",
      "pbrMetallicRoughness": {
        "baseColorTexture": {
          "index": 0
        },
        "metallicFactor": 0.9,
        "roughnessFactor": 0.5
      }
    }
  ],
  "meshes": [
    {
      "name": "Object_0",
      "primitives": [
        {
          "attributes": {
            "NORMAL": 1,
            "POSITION": 0,
            "TEXCOORD_0": 2
          },
          "indices": 3,
          "material": 0,
          "mode": 4
        }
      ]
    },
    {
      "name": "Object_1",
      "primitives": [
        {
          "attributes": {
            "NORMAL": 5,
            "POSITION": 4,
            "TEXCOORD_0": 6
          },
          "indices": 7,
          "material": 1,
          "mode": 4
        }
      ]
    },
    {
      "name": "Object_2",
      "primitives": [
        {
          "attributes": {
            "NORMAL": 9,
            "POSITION": 8,
            "TEXCOORD_0": 10
          },
          "indices": 11,
          "material": 0,
          "mode": 4
        }
      ]
    }
  ],
  "nodes": [
    {
      "children": [
        1
      ],
      "matrix": [
        1.0,
        0.0,
        0.0,
        0.0,
        0.0,
        2.220446049250313e-16,
        -1.0,
        0.0,
        0.0,
        1.0,
        2.220446049250313e-16,
        0.0,
        0.0,
        0.0,
        0.0,
        1.0
      ],
      "name": "Sketchfab_model"
    },
    {
      "children": [
        2
      ],
      "name": "root"
    },
    {
      "children": [
        3,
        6
      ],
      "matrix": [
        1.0,
        0.0,
        0.0,
        0.0,
        0.0,
        2.220446049250313e-16,
        1.0,
        0.0,
        0.0,
        -1.0,
        2.220446049250313e-16,
        0.0,
        0.0,
        0.0,
        0.0,
        1.0
      ],
      "name": "GLTF_SceneRootNode"
    },
    {
      "children": [
        4,
        5
      ],
      "name": "can_0"
    },
    {
      "mesh": 0,
      "name": "Object_4"
    },
    {
      "mesh": 1,
      "name": "Object_5"
    },
    {
      "children": [
        7
      ],
      "matrix": [
        1.0,
        0.0,
        0.0,
        0.0,
        0.0,
        1.0,
        0.0,
        0.0,
        0.0,
        0.0,
        1.0,
        0.0,
        0.0,
        0.13212835788726807,
        0.0,
        1.0
      ],
      "name": "tab_1"
    },
    {
      "mesh": 2,
      "name": "Object_7"
    }
  ],
  "samplers": [
    {
      "magFilter": 9729,
      "minFilter": 9987,
      "wrapS": 33071,
      "wrapT": 33071
    }
  ],
  "scene": 0,
  "scenes": [
    {
      "name": "Sketchfab_Scene",
      "nodes": [
        0
      ]
    }
  ],
  "textures": [
    {
      "sampler": 0,
      "source": 0
    }
  ]
}
