{
  "accessors": [
    {
      "bufferView": 2,
      "componentType": 5126,
      "count": 69,
      "max": [
        627.8267822265625,
        168.6113739013672,
        -163.8739013671875
      ],
      "min": [
        571.2005615234375,
        0.9322051405906677,
        -240.57179260253906
      ],
      "type": "VEC3"
    },
    {
      "bufferView": 2,
      "byteOffset": 828,
      "componentType": 5126,
      "count": 69,
      "max": [
        0.9746339321136475,
        0.8472660183906555,
        1.0
      ],
      "min": [
        -0.9999830722808838,
        -1.0,
        -1.0
      ],
      "type": "VEC3"
    },
    {
      "bufferView": 1,
      "componentType": 5126,
      "count": 69,
      "max": [
        0.9898979067802429,
        0.9921303391456604
      ],
      "min": [
        0.00845290720462799,
        0.010059482418000698
      ],
      "type": "VEC2"
    },
    {
      "bufferView": 1,
      "byteOffset": 552,
      "componentType": 5126,
      "count": 69,
      "max": [
        0.9898979067802429,
        0.9921303391456604
      ],
      "min": [
        0.00845290720462799,
        0.010059482418000698
      ],
      "type": "VEC2"
    },
    {
      "bufferView": 1,
      "byteOffset": 1104,
      "componentType": 5126,
      "count": 69,
      "max": [
        0.9898979067802429,
        0.9921303391456604
      ],
      "min": [
        0.00845290720462799,
        0.010059482418000698
      ],
      "type": "VEC2"
    },
    {
      "bufferView": 1,
      "byteOffset": 1656,
      "componentType": 5126,
      "count": 69,
      "max": [
        0.9898979067802429,
        0.9921303391456604
      ],
      "min": [
        0.00845290720462799,
        0.010059482418000698
      ],
      "type": "VEC2"
    },
    {
      "bufferView": 1,
      "byteOffset": 2208,
      "componentType": 5126,
      "count": 69,
      "max": [
        0.9898979067802429,
        0.9921303391456604
      ],
      "min": [
        0.00845290720462799,
        0.010059482418000698
      ],
      "type": "VEC2"
    },
    {
      "bufferView": 1,
      "byteOffset": 2760,
      "componentType": 5126,
      "count": 69,
      "max": [
        0.9898979067802429,
        0.9921303391456604
      ],
      "min": [
        0.00845290720462799,
        0.010059482418000698
      ],
      "type": "VEC2"
    },
    {
      "bufferView": 1,
      "byteOffset": 3312,
      "componentType": 5126,
      "count": 69,
      "max": [
        0.9898979067802429,
        0.9921303391456604
      ],
      "min": [
        0.00845290720462799,
        0.010059482418000698
      ],
      "type": "VEC2"
    },
    {
      "bufferView": 1,
      "byteOffset": 3864,
      "componentType": 5126,
      "count": 69,
      "max": [
        0.9898979067802429,
        0.9921303391456604
      ],
      "min": [
        0.00845290720462799,
        0.010059482418000698
      ],
      "type": "VEC2"
    },
    {
      "bufferView": 1,
      "byteOffset": 4416,
      "componentType": 5126,
      "count": 69,
      "max": [
        0.9898979067802429,
        0.9921303391456604
      ],
      "min": [
        0.00845290720462799,
        0.010059482418000698
      ],
      "type": "VEC2"
    },
    {
      "bufferView": 1,
      "byteOffset": 4968,
      "componentType": 5126,
      "count": 69,
      "max": [
        0.9898979067802429,
        0.9921303391456604
      ],
      "min": [
        0.00845290720462799,
        0.010059482418000698
      ],
      "type": "VEC2"
    },
    {
      "bufferView": 0,
      "componentType": 5125,
      "count": 144,
      "type": "SCALAR"
    }
  ],
  "asset": {
    "extras": {
      "author": "eyes360vr (https://sketchfab.com/eyes360vr)",
      "license": "CC-BY-4.0 (http://creativecommons.org/licenses/by/4.0/)",
      "source": "https://sketchfab.com/3d-models/snacksinabox-dca4bd4f7fbf4d87baf5cb5c56d604a9",
      "title": "Snacks+in+a+box"
    },
    "generator": "Sketchfab-12.68.0",
    "version": "2.0"
  },
  "bufferViews": [
    {
      "buffer": 0,
      "byteLength": 576,
      "name": "floatBufferViews",
      "target": 34963
    },
    {
      "buffer": 0,
      "byteLength": 5520,
      "byteOffset": 576,
      "byteStride": 8,
      "name": "floatBufferViews",
      "target": 34962
    },
    {
      "buffer": 0,
      "byteLength": 1656,
      "byteOffset": 6096,
      "byteStride": 12,
      "name": "floatBufferViews",
      "target": 34962
    }
  ],
  "buffers": [
    {
      "byteLength": 7752,
      "uri": "scene.bin"
    }
  ],
  "images": [
    {
      "uri": "textures/box_1_baseColor.jpeg"
    }
  ],
  "materials": [
    {
      "doubleSided": true,
      "name": "box_1",
      "pbrMetallicRoughness": {
        "baseColorTexture": {
          "index": 0
        },
        "metallicFactor": 0.0,
        "roughnessFactor": 0.9302134966129227
      }
    }
  ],
  "meshes": [
    {
      "name": "Mesh1_box_1_0",
      "primitives": [
        {
          "attributes": {
            "NORMAL": 1,
            "POSITION": 0,
            "TEXCOORD_0": 2,
            "TEXCOORD_1": 3,
            "TEXCOORD_2": 4,
            "TEXCOORD_3": 5,
            "TEXCOORD_4": 6,
            "TEXCOORD_5": 7,
            "TEXCOORD_6": 8,
            "TEXCOORD_7": 9,
            "TEXCOORD_8": 10,
            "TEXCOORD_9": 11
          },
          "indices": 12,
          "material": 0,
          "mode": 4
        }
      ]
    }
  ],
  "nodes": [
    {
      "children": [
        1
      ],
      "matrix": [
        1.0,
        0.0,
        0.0,
        0.0,
        0.0,
        2.220446049250313e-16,
        -1.0,
        0.0,
        0.0,
        1.0,
        2.220446049250313e-16,
        0.0,
        0.0,
        0.0,
        0.0,
        1.0
      ],
      "name": "Sketchfab_model"
    },
    {
      "children": [
        2
      ],
      "matrix": [
        0.009999999776482582,
        0.0,
        0.0,
        0.0,
        0.0,
        0.0,
        0.009999999776482582,
        0.0,
        0.0,
        -0.009999999776482582,
        0.0,
        0.0,
        0.0,
        0.0,
        0.0,
        1.0
      ],
      "name": "snacks+in+a+box.fbx"
    },
    {
      "children": [
        3
      ],
      "name": "RootNode"
    },
    {
      "children": [
        4
      ],
      "name": "Model"
    },
    {
      "children": [
        5
      ],
      "name": "Group_204_1"
    },
    {
      "children": [
        6
      ],
      "name": "G_3DGeom_1"
    },
    {
      "children": [
        7
      ],
      "name": "Mesh1"
    },
    {
      "mesh": 0,
      "name": "Mesh1_box_1_0"
    }
  ],
  "samplers": [
    {
      "magFilter": 9729,
      "minFilter": 9987,
      "wrapS": 10497,
      "wrapT": 10497
    }
  ],
  "scene": 0,
  "scenes": [
    {
      "name": "Sketchfab_Scene",
      "nodes": [
        0
      ]
    }
  ],
  "textures": [
    {
      "sampler": 0,
      "source": 0
    }
  ]
}
