{
  "accessors": [
    {
      "bufferView": 2,
      "componentType": 5126,
      "count": 331,
      "max": [
        51.1519775390625,
        51.145992279052734,
        141.34295654296875
      ],
      "min": [
        -51.1519889831543,
        -51.145992279052734,
        5.274866104125977
      ],
      "type": "VEC3"
    },
    {
      "bufferView": 2,
      "byteOffset": 3972,
      "componentType": 5126,
      "count": 331,
      "max": [
        1.0,
        1.0,
        0.43385812640190125
      ],
      "min": [
        -1.0,
        -1.0,
        -0.028410619124770164
      ],
      "type": "VEC3"
    },
    {
      "bufferView": 3,
      "componentType": 5126,
      "count": 331,
      "max": [
        1.0,
        1.0,
        0.03443770483136177,
        1.0
      ],
      "min": [
        -1.0,
        -1.0,
        -0.03443766385316849,
        1.0
      ],
      "type": "VEC4"
    },
    {
      "bufferView": 1,
      "componentType": 5126,
      "count": 331,
      "max": [
        1.0002069473266602,
        1.0007171630859375
      ],
      "min": [
        -0.003070533275604248,
        0.0005000184755772352
      ],
      "type": "VEC2"
    },
    {
      "bufferView": 0,
      "componentType": 5125,
      "count": 1512,
      "type": "SCALAR"
    },
    {
      "bufferView": 2,
      "byteOffset": 7944,
      "componentType": 5126,
      "count": 2944,
      "max": [
        51.0907096862793,
        51.08473205566406,
        144.6162872314453
      ],
      "min": [
        -51.090721130371094,
        -51.08473205566406,
        -6.052167892456055
      ],
      "type": "VEC3"
    },
    {
      "bufferView": 2,
      "byteOffset": 43272,
      "componentType": 5126,
      "count": 2944,
      "max": [
        1.0,
        1.0,
        1.0
      ],
      "min": [
        -1.0,
        -1.0,
        -1.0
      ],
      "type": "VEC3"
    },
    {
      "bufferView": 1,
      "byteOffset": 2648,
      "componentType": 5126,
      "count": 2944,
      "max": [
        1.0,
        1.0167226791381836
      ],
      "min": [
        -0.09903264045715332,
        0.0
      ],
      "type": "VEC2"
    },
    {
      "bufferView": 0,
      "byteOffset": 6048,
      "componentType": 5125,
      "count": 8832,
      "type": "SCALAR"
    }
  ],
  "asset": {
    "extras": {
      "author": "Anthony Yanez (https://sketchfab.com/paulyanez)",
      "license": "CC-BY-4.0 (http://creativecommons.org/licenses/by/4.0/)",
      "source": "https://sketchfab.com/3d-models/pepsi-can-76262ad4b5544dc9bec5d715001c8ded",
      "title": "Pepsi Can"
    },
    "generator": "Sketchfab-12.66.0",
    "version": "2.0"
  },
  "bufferViews": [
    {
      "buffer": 0,
      "byteLength": 41376,
      "name": "floatBufferViews",
      "target": 34963
    },
    {
      "buffer": 0,
      "byteLength": 26200,
      "byteOffset": 41376,
      "byteStride": 8,
      "name": "floatBufferViews",
      "target": 34962
    },
    {
      "buffer": 0,
      "byteLength": 78600,
      "byteOffset": 67576,
      "byteStride": 12,
      "name": "floatBufferViews",
      "target": 34962
    },
    {
      "buffer": 0,
      "byteLength": 5296,
      "byteOffset": 146176,
      "byteStride": 16,
      "name": "floatBufferViews",
      "target": 34962
    }
  ],
  "buffers": [
    {
      "byteLength": 151472,
      "uri": "scene.bin"
    }
  ],
  "images": [
    {
      "uri": "textures/01_-_Default_baseColor.png"
    },
    {
      "uri": "textures/01_-_Default_normal.png"
    }
  ],
  "materials": [
    {
      "doubleSided": true,
      "name": "01_-_Default",
      "normalTexture": {
        "index": 1
      },
      "pbrMetallicRoughness": {
        "baseColorTexture": {
          "index": 0
        },
        "roughnessFactor": 0.5
      }
    },
    {
      "doubleSided": true,
      "name": "02_-_Default",
      "pbrMetallicRoughness": {
        "baseColorFactor": [
          0.588235,
          0.588235,
          0.588235,
          1.0
        ],
        "metallicFactor": 0.6236661585,
        "roughnessFactor": 0.0
      }
    }
  ],
  "meshes": [
    {
      "name": "Can_01 - Default_0",
      "primitives": [
        {
          "attributes": {
            "NORMAL": 1,
            "POSITION": 0,
            "TANGENT": 2,
            "TEXCOORD_0": 3
          },
          "indices": 4,
          "material": 0,
          "mode": 4
        }
      ]
    },
    {
      "name": "Can_02 - Default_0",
      "primitives": [
        {
          "attributes": {
            "NORMAL": 6,
            "POSITION": 5,
            "TEXCOORD_0": 7
          },
          "indices": 8,
          "material": 1,
          "mode": 4
        }
      ]
    }
  ],
  "nodes": [
    {
      "children": [
        1
      ],
      "matrix": [
        1.0,
        0.0,
        0.0,
        0.0,
        0.0,
        2.220446049250313e-16,
        -1.0,
        0.0,
        0.0,
        1.0,
        2.220446049250313e-16,
        0.0,
        0.0,
        0.0,
        0.0,
        1.0
      ],
      "name": "Sketchfab_model"
    },
    {
      "children": [
        2
      ],
      "matrix": [
        1.0,
        0.0,
        0.0,
        0.0,
        0.0,
        0.0,
        1.0,
        0.0,
        0.0,
        -1.0,
        0.0,
        0.0,
        0.0,
        0.0,
        0.0,
        1.0
      ],
      "name": "Pepsi Can.FBX"
    },
    {
      "children": [
        3
      ],
      "name": "RootNode"
    },
    {
      "children": [
        4,
        5
      ],
      "matrix": [
        0.8187165260314941,
        0.0,
        0.0,
        0.0,
        0.0,
        1.8179158756825723e-16,
        -0.8187165260314941,
        0.0,
        0.0,
        1.0,
        2.220446049250313e-16,
        0.0,
        -0.08075134456157684,
        0.0,
        0.2422643005847931,
        1.0
      ],
      "name": "Can"
    },
    {
      "mesh": 0,
      "name": "Can_01 - Default_0"
    },
    {
      "mesh": 1,
      "name": "Can_02 - Default_0"
    }
  ],
  "samplers": [
    {
      "magFilter": 9729,
      "minFilter": 9987,
      "wrapS": 10497,
      "wrapT": 10497
    }
  ],
  "scene": 0,
  "scenes": [
    {
      "name": "Sketchfab_Scene",
      "nodes": [
        0
      ]
    }
  ],
  "textures": [
    {
      "sampler": 0,
      "source": 0
    },
    {
      "sampler": 0,
      "source": 1
    }
  ]
}
