{
  "accessors": [
    {
      "bufferView": 2,
      "componentType": 5126,
      "count": 5966,
      "max": [
        35.832210540771484,
        57.79243087768555,
        14.515015602111816
      ],
      "min": [
        -39.51082229614258,
        -57.07710647583008,
        -19.12955093383789
      ],
      "type": "VEC3"
    },
    {
      "bufferView": 2,
      "byteOffset": 71592,
      "componentType": 5126,
      "count": 5966,
      "max": [
        0.9999827742576599,
        1.0,
        0.9999987483024597
      ],
      "min": [
        -0.9996857047080994,
        -1.0,
        -0.9999996423721313
      ],
      "type": "VEC3"
    },
    {
      "bufferView": 3,
      "componentType": 5126,
      "count": 5966,
      "max": [
        1.0,
        1.0,
        0.6088136434555054,
        1.0
      ],
      "min": [
        -0.8832650780677795,
        -1.0,
        -0.5867081880569458,
        1.0
      ],
      "type": "VEC4"
    },
    {
      "bufferView": 1,
      "componentType": 5126,
      "count": 5966,
      "max": [
        0.9992013573646545,
        0.9993215799331665
      ],
      "min": [
        0.0006757201626896858,
        0.0010724556632339954
      ],
      "type": "VEC2"
    },
    {
      "bufferView": 1,
      "byteOffset": 47728,
      "componentType": 5126,
      "count": 5966,
      "max": [
        0.9992013573646545,
        0.9993215799331665
      ],
      "min": [
        0.0006757201626896858,
        0.0010724556632339954
      ],
      "type": "VEC2"
    },
    {
      "bufferView": 1,
      "byteOffset": 95456,
      "componentType": 5126,
      "count": 5966,
      "max": [
        0.9607999324798584,
        0.9436436295509338
      ],
      "min": [
        0.03920000046491623,
        0.03920000046491623
      ],
      "type": "VEC2"
    },
    {
      "bufferView": 1,
      "byteOffset": 143184,
      "componentType": 5126,
      "count": 5966,
      "max": [
        0.9992013573646545,
        0.9993215799331665
      ],
      "min": [
        0.0006757201626896858,
        0.0010724556632339954
      ],
      "type": "VEC2"
    },
    {
      "bufferView": 1,
      "byteOffset": 190912,
      "componentType": 5126,
      "count": 5966,
      "max": [
        0.9992013573646545,
        0.9993215799331665
      ],
      "min": [
        0.0006757201626896858,
        0.0010724556632339954
      ],
      "type": "VEC2"
    },
    {
      "bufferView": 1,
      "byteOffset": 238640,
      "componentType": 5126,
      "count": 5966,
      "max": [
        0.9992013573646545,
        0.9993215799331665
      ],
      "min": [
        0.0006757201626896858,
        0.0010724556632339954
      ],
      "type": "VEC2"
    },
    {
      "bufferView": 1,
      "byteOffset": 286368,
      "componentType": 5126,
      "count": 5966,
      "max": [
        0.9992013573646545,
        0.9993215799331665
      ],
      "min": [
        0.0006757201626896858,
        0.0010724556632339954
      ],
      "type": "VEC2"
    },
    {
      "bufferView": 1,
      "byteOffset": 334096,
      "componentType": 5126,
      "count": 5966,
      "max": [
        0.9992013573646545,
        0.9993215799331665
      ],
      "min": [
        0.0006757201626896858,
        0.0010724556632339954
      ],
      "type": "VEC2"
    },
    {
      "bufferView": 1,
      "byteOffset": 381824,
      "componentType": 5126,
      "count": 5966,
      "max": [
        0.9992013573646545,
        0.9993215799331665
      ],
      "min": [
        0.0006757201626896858,
        0.0010724556632339954
      ],
      "type": "VEC2"
    },
    {
      "bufferView": 1,
      "byteOffset": 429552,
      "componentType": 5126,
      "count": 5966,
      "max": [
        0.9992013573646545,
        0.9993215799331665
      ],
      "min": [
        0.0006757201626896858,
        0.0010724556632339954
      ],
      "type": "VEC2"
    },
    {
      "bufferView": 0,
      "componentType": 5125,
      "count": 29766,
      "type": "SCALAR"
    }
  ],
  "asset": {
    "extras": {
      "author": "BarnusModels (https://sketchfab.com/barnusmodels)",
      "license": "CC-BY-4.0 (http://creativecommons.org/licenses/by/4.0/)",
      "source": "https://sketchfab.com/3d-models/cheez-it-baked-snack-crackers-v2-c55a683cc8cb49d38c3e67f59bbbe04b",
      "title": "Cheez-it Baked Snack Crackers V2"
    },
    "generator": "Sketchfab-15.17.0",
    "version": "2.0"
  },
  "bufferViews": [
    {
      "buffer": 0,
      "byteLength": 119064,
      "name": "floatBufferViews",
      "target": 34963
    },
    {
      "buffer": 0,
      "byteLength": 477280,
      "byteOffset": 119064,
      "byteStride": 8,
      "name": "floatBufferViews",
      "target": 34962
    },
    {
      "buffer": 0,
      "byteLength": 143184,
      "byteOffset": 596344,
      "byteStride": 12,
      "name": "floatBufferViews",
      "target": 34962
    },
    {
      "buffer": 0,
      "byteLength": 95456,
      "byteOffset": 739528,
      "byteStride": 16,
      "name": "floatBufferViews",
      "target": 34962
    }
  ],
  "buffers": [
    {
      "byteLength": 834984,
      "uri": "scene.bin"
    }
  ],
  "images": [
    {
      "uri": "textures/Material__25_baseColor.png"
    },
    {
      "uri": "textures/Material__25_metallicRoughness.png"
    },
    {
      "uri": "textures/Material__25_normal.png"
    }
  ],
  "materials": [
    {
      "doubleSided": true,
      "name": "Material__25",
      "normalTexture": {
        "index": 2
      },
      "pbrMetallicRoughness": {
        "baseColorTexture": {
          "index": 0
        },
        "metallicFactor": 0.0,
        "metallicRoughnessTexture": {
          "index": 1
        }
      }
    }
  ],
  "meshes": [
    {
      "name": "Box006_Material _25_0",
      "primitives": [
        {
          "attributes": {
            "NORMAL": 1,
            "POSITION": 0,
            "TANGENT": 2,
            "TEXCOORD_0": 3,
            "TEXCOORD_1": 4,
            "TEXCOORD_2": 5,
            "TEXCOORD_3": 6,
            "TEXCOORD_4": 7,
            "TEXCOORD_5": 8,
            "TEXCOORD_6": 9,
            "TEXCOORD_7": 10,
            "TEXCOORD_8": 11,
            "TEXCOORD_9": 12
          },
          "indices": 13,
          "material": 0,
          "mode": 4
        }
      ]
    }
  ],
  "nodes": [
    {
      "children": [
        1
      ],
      "matrix": [
        1.0,
        0.0,
        0.0,
        0.0,
        0.0,
        2.220446049250313e-16,
        -1.0,
        0.0,
        0.0,
        1.0,
        2.220446049250313e-16,
        0.0,
        0.0,
        0.0,
        0.0,
        1.0
      ],
      "name": "Sketchfab_model"
    },
    {
      "children": [
        2
      ],
      "matrix": [
        0.02539999969303608,
        0.0,
        0.0,
        0.0,
        0.0,
        0.0,
        0.02539999969303608,
        0.0,
        0.0,
        -0.02539999969303608,
        0.0,
        0.0,
        0.0,
        0.0,
        0.0,
        1.0
      ],
      "name": "4ad51ca0205c4619bcdfaed39880b54d.fbx"
    },
    {
      "children": [
        3
      ],
      "name": "RootNode"
    },
    {
      "children": [
        4
      ],
      "matrix": [
        1.0,
        0.0,
        0.0,
        0.0,
        0.0,
        1.5949486136499646e-16,
        -0.718300998210907,
        0.0,
        0.0,
        0.6610350012779236,
        1.467792557003741e-16,
        0.0,
        -1.0688533782958984,
        0.0,
        -1.600067138671875,
        1.0
      ],
      "name": "Box006"
    },
    {
      "mesh": 0,
      "name": "Box006_Material _25_0"
    }
  ],
  "samplers": [
    {
      "magFilter": 9729,
      "minFilter": 9987,
      "wrapS": 10497,
      "wrapT": 10497
    }
  ],
  "scene": 0,
  "scenes": [
    {
      "name": "Sketchfab_Scene",
      "nodes": [
        0
      ]
    }
  ],
  "textures": [
    {
      "sampler": 0,
      "source": 0
    },
    {
      "sampler": 0,
      "source": 1
    },
    {
      "sampler": 0,
      "source": 2
    }
  ]
}
